<svg xmlns="http://www.w3.org/2000/svg" xmlns:xlink="http://www.w3.org/1999/xlink" version="1.1" x="0px" y="0px" viewBox="0 0 100 100" enable-background="new 0 0 100 100" xml:space="preserve"><path d="M79.3,28.9c1.3-2.8,2-5.8,2.4-7.8c2.1,3.9,6,13.7,1.5,25c-2,4.9-6.3,8.1-11.3,10.2c1.2-1.1,2.2-2.5,2.7-4.2  c1.8-5.6,1.4-12,0.4-17.1C75.9,34.4,77.7,32.5,79.3,28.9z"></path><path d="M71.4,28c1.5,4.5,4.4,15.1,1.6,23.7c-1.3,4-5.6,6.2-10.1,7.3c-1.8,0.4-3.5,0.6-5.1,0.8c2.6-1.7,4.7-4.6,4.7-9.4  c0-2.4-0.7-5.3-1.8-8.2c1.4-1.1,4.8-4.2,6.7-6.6C69.4,33.3,70.7,30.2,71.4,28z"></path><path d="M58.6,22.9C58.9,21,59,19,59,17.7c1.3,1,3.3,2.9,4.9,5.3c2.5,3.8,3.8,7.8,4.2,8.9c-0.5,1-1.1,1.9-1.7,2.7  c-1.6,2-4.5,4.6-6,5.9c-1.5-3.8-3.5-7.6-5.2-10.6C55.9,28.9,58,26.1,58.6,22.9z"></path><path d="M50.5,25.5C52.8,29.2,61,42.6,61,50.4c0,8.8-7.8,9.8-10,9.9c-0.5,0-0.8,0-0.9,0C47.4,60.3,39,59.3,39,50.4  C39,41.6,47.9,29,50.5,25.5z"></path><path d="M36.2,23c1.5-2.4,3.6-4.3,4.9-5.3c0,1.3,0.1,3.3,0.4,5.2c0.6,3.2,2.8,6.3,3.8,7.4c-1.9,2.9-3.9,6.6-5.5,10.3  c-1.5-1.3-4.4-3.9-6-5.9c-0.6-0.8-1.2-1.8-1.7-2.7C32.3,30.8,33.7,26.8,36.2,23z"></path><path d="M28.6,28c0.7,2.1,2,5.3,3.9,7.6c1.9,2.4,5.3,5.4,6.7,6.5c-1.1,2.8-1.7,5.7-1.7,8.2c0,5,2.4,7.9,5.1,9.5  c-1.7-0.2-3.5-0.5-5.4-0.8c-4.5-1.2-8.8-3.3-10.1-7.3C24.2,43.2,27.1,32.6,28.6,28z"></path><path d="M18.4,21.2c0.4,2,1.1,5,2.4,7.8c1.6,3.5,3.4,5.4,4.3,6.2c-1,5.1-1.4,11.4,0.4,17.1c0.5,1.7,1.5,3,2.7,4.2  c-4.9-2.1-9.3-5.3-11.3-10.2C12.3,34.9,16.3,25.1,18.4,21.2z"></path><path d="M7.9,56.2c-0.9-4.4-2-7.5-2.9-9.4c1,0.4,2.2,0.7,3.5,0.6c3.4-0.2,5.8-0.3,7.3,0.3c2.1,4.5,6.3,8,12.3,10.5  c-1.1,0.3-2.2,0.7-3.4,1.4c-2.2,1.3-3.2,3.8-4,6C18,64.8,9,62.1,7.9,56.2z"></path><path d="M25.6,74.6c-2.7-1-6.2-1.4-8.7-1.6c0.8-0.5,1.7-1.2,2.6-2c1.2-1.1,1.8-2.8,2.5-4.6c0.8-2.2,1.6-4.4,3.4-5.5  c3.2-1.9,5.7-1.7,7.8-1.1c0,0,0.3,0,0.3,0c0.1,0,0.4,0,0.4,0v0c0,0.1,0.8,0.3,1.4,0.4c0.5,0.1,0.9,0.2,1.4,0.3  c1.1,0.3,2.2,0.5,3.3,0.7c-0.9,1.7-2.3,5-1.6,8.2c0.1,0.6,0.3,1.2,0.5,1.7C37,72.7,31,76.6,25.6,74.6z"></path><path d="M55.5,75.5c-0.9,0.8-1.8,1.7-2.7,2.7c-1.4,1.6-2.2,3.1-2.8,4.1c-0.6-1-1.5-2.4-3.2-4.2c-0.7-0.7-1.4-1.4-2.2-2  c-2-1.8-3.9-3.4-4.6-6.9c-0.6-3.1,1-6.4,1.7-7.6c2.7,0.3,5.1,0.4,6.7,0.4c0.9,0,1.4,0,1.6,0c0.2,0,0.7,0,1.6,0c1.5,0,4-0.1,6.7-0.4  c0.8,1.2,2.5,4.5,1.7,7.5C59.2,72.1,57.4,73.7,55.5,75.5z"></path><path d="M83.1,73c-2.5,0.2-6,0.6-8.7,1.6c-5.5,2.1-11.5-2-13.4-3.4c0.2-0.5,0.4-1.1,0.6-1.7c0.8-3.2-0.6-6.5-1.5-8.2  c1.1-0.2,2.2-0.4,3.3-0.7c0.5-0.1,0.8-0.2,1.3-0.3c0.6-0.1,1.4-0.3,1.4-0.4v0c0,0,0.4,0,0.5-0.1c0,0,0.1,0,0.1,0  c2.2-0.6,4.7-0.9,7.9,1.1c1.8,1.1,2.7,3.3,3.4,5.5c0.7,1.8,1.3,3.5,2.5,4.6C81.3,71.8,82.3,72.5,83.1,73z"></path><path d="M92.1,56.2C91,62.1,82,64.8,79.4,65.5c-0.8-2.2-1.8-4.7-4-6c-1.2-0.7-2.4-1.2-3.4-1.4c6-2.5,10.2-6,12.3-10.5  c1.4-0.6,3.8-0.5,7.3-0.3c1.3,0.1,2.5-0.2,3.5-0.6C94.1,48.6,93,51.8,92.1,56.2z"></path></svg>