<svg xmlns="http://www.w3.org/2000/svg" xmlns:xlink="http://www.w3.org/1999/xlink" version="1.1" x="0px" y="0px" viewBox="0 0 262.667 270.62375" style="enable-background:new 0 0 262.667 216.499;" xml:space="preserve"><g><path d="M64.283,194.647c0,3.106,0.023,6.294,0.078,9.562c0.113,6.832,5.688,12.29,12.493,12.29c0.072,0,0.144,0,0.216-0.001   c6.901-0.115,12.403-5.806,12.288-12.709c-0.053-3.113-0.076-6.158-0.074-9.142c0-4.352,0.055-8.534,0.146-12.58H64.425   C64.336,186.125,64.283,190.307,64.283,194.647z"/><path d="M108.434,204.361c0.7,6.399,6.117,11.14,12.412,11.14c0.455,0,0.913-0.024,1.375-0.075   c6.861-0.753,11.815-6.926,11.065-13.787c-0.76-6.933-1.56-13.447-2.384-19.571h-25.234   C106.625,188.927,107.556,196.345,108.434,204.361z"/><path d="M91.263,121.236l-0.26-5.154l-0.999,0.051l-0.757-14.98L92.243,101L93,115.981l-0.998,0.051l0.263,5.204h10.002   c2.448-6.047,7.594-10.173,15.313-12.292l-2.475-5.457l-0.911,0.413L108,90.239L110.731,89l6.195,13.661l-0.91,0.413l2.545,5.611   c0.054-0.014,0.105-0.029,0.159-0.042l0.074-0.017l0.074-0.013c1.578-0.255,3.088-0.479,4.568-0.687   c1.263-12.573,4.166-25.089,8.647-37.263c1.736,4.019,4.096,8.249,7.321,12.243l0.154-0.008l0.011,0.22   c1.159,1.418,2.424,2.806,3.816,4.141c5.076,4.888,11.862,8.955,20.259,11.127l-1.093,5.107l0.978,0.209l-1.051,4.912   c0.325,0.066,0.65,0.134,0.98,0.203l1.05-4.905l0.978,0.209l1.102-5.146c0.139,0.008,0.279,0.023,0.417,0.023   c3.656,0,6.957-2.522,7.796-6.238c0.974-4.31-1.73-8.593-6.038-9.565c-6.355-1.453-10.799-4.154-14.309-7.488   c-5.23-4.977-8.238-11.748-9.797-17.405c-0.779-2.812-1.204-5.305-1.427-7.041c-0.109-0.868-0.171-1.545-0.203-1.98   c-0.016-0.214-0.023-0.371-0.028-0.458c-0.002-0.043-0.004-0.071-0.004-0.079h-0.001c-0.043-1.341-0.417-2.593-1.036-3.684   c-2.92,1.241-6.11,1.933-9.435,1.933c-0.709,0-1.427-0.03-2.133-0.093c-6.519-0.561-12.431-3.63-16.64-8.637   c-2.031-2.414-3.544-5.14-4.509-8.045c-1.365-0.597-2.729-1.193-4.095-1.79c-1.02-0.458-2.172-0.563-3.353-0.379   c-0.122-0.012-0.242-0.031-0.365-0.038c-0.123-0.006-0.788-0.04-1.864-0.04c-3.488,0.036-11.164,0.24-19.079,3.353   c-3.941,1.581-8.063,3.984-11.356,7.917c-3.1,3.648-5.122,8.705-5.333,14.295c-0.015,0.385-0.045,0.765-0.042,1.154   c0.002,1.844,0.178,3.742,0.525,5.688c0.001,0.006,0.001,0.012,0.002,0.018c1.716,9.406,7.077,20.016,17.371,33.475   C83.228,95.923,85.603,97,88.005,97c1.7,0,3.414-0.539,4.868-1.653c3.502-2.693,4.163-7.716,1.473-11.22   c-9.449-12.25-13.394-21.131-14.306-26.503c-0.002-0.011-0.002-0.021-0.004-0.032c-0.2-1.116-0.28-2.077-0.28-2.902   c0.014-0.77,0.079-1.41,0.181-1.975c0.258-1.434,0.777-2.328,1.483-3.229c1.251-1.596,3.936-3.095,7.125-4.041   c-2.15,4.794-4.114,9.639-5.885,14.526c1.321,4.392,4.699,11.825,13.27,22.933c3.359,4.374,2.534,10.664-1.837,14.026   c-1.767,1.355-3.871,2.07-6.088,2.07c-3.135,0-6.029-1.426-7.938-3.909c-1.936-2.531-3.706-4.972-5.318-7.333   c-1.564,7.488-2.693,15.022-3.367,22.57c-0.567,2.888-1.227,6.529-1.911,10.907H91.263z"/><ellipse transform="matrix(0.086 -0.9963 0.9963 0.086 98.6909 152.5668)" cx="132.496" cy="22.496" rx="22.495" ry="22.495"/><path d="M236.1,125.725c1.146-0.439,2.345-0.661,3.564-0.661c2.179,0,4.252,0.729,5.943,1.98   c0.753-11.224-6.994-21.484-18.323-23.595c-12.214-2.274-23.959,5.784-26.232,17.996c-0.57,3.059-0.491,6.089,0.138,8.947   c2.393,0.251,4.982,0.408,7.741,0.407C218.144,130.798,227.282,129.09,236.1,125.725z"/><path d="M185.677,107.459l0.967,0.251l3.772-14.518l-2.904-0.755l-3.771,14.519l0.968,0.251l-2.016,7.758   c0.303,0.177,0.602,0.354,0.893,0.537L185.677,107.459z"/><polygon points="48.725,115.489 49.664,115.143 44.482,101.066 41.667,102.103 46.848,116.18 47.787,115.835 49.774,121.236    50.84,121.236  "/><path d="M137.422,100.032l0.998-0.051L137.663,85l-2.996,0.152l0.757,14.98l0.999-0.051l0.329,6.521   c0.338-0.017,0.666-0.024,1-0.038L137.422,100.032z"/><polygon points="63.074,113.461 64.053,113.67 67.191,99.002 64.258,98.375 61.119,113.043 62.097,113.252 60.388,121.236    61.41,121.236  "/><path d="M101.5,148.233c0,0,7.111,0,16.834,0c17.691,0,44.041,0,52,0c5.164,0,9.694-0.126,13.358-0.896   c-5.053-1.438-8.357-2.89-9.462-3.408c-5.032-2.438-7.111-8.433-4.708-13.392c1.664-3.427,5.196-5.64,9.005-5.64   c1.518,0,2.983,0.339,4.359,1.004l0.225,0.101c0.224,0.097,0.643,0.274,1.209,0.49c1.092,0.425,2.884,1.066,5.237,1.719   c0.818,0.228,1.732,0.463,2.731,0.694c-2.275-6.252-7.812-12.301-17.38-15.12c-20.457-5.898-33.641-6.773-55.719-3.198   c-9.497,2.29-13.747,7.153-15.521,12.646H26.912c-6.904,0-12.5,5.596-12.5,12.498c0,6.904,5.596,12.501,12.5,12.501H101.5z"/><path d="M189.021,130.139c-2.377-0.659-4.219-1.311-5.421-1.777c-0.6-0.232-1.042-0.42-1.312-0.537   c-0.134-0.06-0.224-0.101-0.271-0.122h-0.004c-3.978-1.929-8.762-0.271-10.69,3.707c-1.926,3.974-0.268,8.76,3.708,10.689v-0.002   c0.698,0.323,13.915,6.682,33.899,6.703c0.006,0,0.013,0,0.02,0c9.852,0,21.343-1.586,33.571-6.262   c4.126-1.576,6.194-6.199,4.618-10.327c-1.577-4.127-6.202-6.195-10.328-4.618c-10.246,3.913-19.722,5.205-27.881,5.207   C200.674,132.801,193.779,131.46,189.021,130.139z"/><path d="M256.667,152.067H6c-3.314,0-6,2.686-6,6v16c0,3.313,2.686,6,6,6h8.599v34.933h10.969v-34.933h211.531v34.933h10.969   v-34.933h8.6c3.314,0,6-2.688,6-6v-16C262.667,154.753,259.981,152.067,256.667,152.067z"/></g><text x="0" y="231.499" fill="#000000" font-size="5px" font-weight="bold" font-family="'Helvetica Neue', Helvetica, Arial-Unicode, Arial, Sans-serif">Created by Gan Khoon Lay</text><text x="0" y="236.499" fill="#000000" font-size="5px" font-weight="bold" font-family="'Helvetica Neue', Helvetica, Arial-Unicode, Arial, Sans-serif">from the Noun Project</text></svg>