<svg xmlns="http://www.w3.org/2000/svg" xmlns:xlink="http://www.w3.org/1999/xlink" version="1.1" x="0px" y="0px" viewBox="0 0 50.4 63" enable-background="new 0 0 50.4 50.4" xml:space="preserve"><g><g><path d="M8.178,9.242c0,1.256,1.017,2.272,2.271,2.272h2.054L1.705,15.321c-1.241,0.438-1.891,1.8-1.458,3.042    c0.441,1.244,1.802,1.895,3.045,1.458l11.535-4.067L1.262,24.562c-1.208,0.788-1.55,2.405-0.769,3.616    c0.789,1.209,2.406,1.553,3.617,0.77l10.791-7.013l4.563-8.155c0.248-0.439,0.799-0.595,1.24-0.351    c0.294,0.168,0.463,0.477,0.463,0.795c0,0.149-0.037,0.301-0.115,0.442l-2.569,4.608c-0.888,1.491-2.307,4.722-1.802,7.709    c0.422,2.481,1.69,4.733,3.648,6.321c1.107,0.9,2.735,0.729,3.634-0.379c0.897-1.107,0.729-2.734-0.379-3.633    c-0.964-0.787-1.604-1.893-1.801-3.12c-0.21-1.332,0.106-2.658,0.898-3.749c0.788-1.087,1.956-1.807,3.283-2.02    c2.742-0.436,5.331,1.438,5.768,4.179c0.442,2.73-1.438,5.336-4.182,5.772c-1.407,0.227-2.354,1.557-2.142,2.959    c0.222,1.408,1.547,2.367,2.958,2.143c3.056-0.488,5.568-2.305,7.073-4.756l7.645-10.099H50.4V6.97H10.449    C9.195,6.968,8.178,7.985,8.178,9.242z"/></g><path d="M24.712,48.637c-0.375,0-0.502-0.832-0.502-1.109V33.129c0-0.275,0.226-0.502,0.502-0.502c0.275,0,0.5,0.227,0.5,0.502   v14.398C25.213,47.805,25.063,48.637,24.712,48.637L24.712,48.637z"/></g><text x="0" y="65.4" fill="#000000" font-size="5px" font-weight="bold" font-family="'Helvetica Neue', Helvetica, Arial-Unicode, Arial, Sans-serif">Created by Luis Prado</text><text x="0" y="70.4" fill="#000000" font-size="5px" font-weight="bold" font-family="'Helvetica Neue', Helvetica, Arial-Unicode, Arial, Sans-serif">from the Noun Project</text></svg>