<svg xmlns="http://www.w3.org/2000/svg" xmlns:xlink="http://www.w3.org/1999/xlink" version="1.1" x="0px" y="0px" viewBox="0 0 64 80" style="enable-background:new 0 0 64 64;" xml:space="preserve"><title>08_definechallenge_temporary</title><g><path d="M32,50c-0.4,0-0.7,0-1-0.1c-4.7-0.3-8.9-2.3-12.1-4.5L12.6,58h38.8l-6.3-12.6c-3.1,2.1-7.3,4.2-12.1,4.5   C32.7,50,32.4,50,32,50z M29,56h-2v-2h2V56z M33,56h-2v-2h2V56z M35,54h2v2h-2V54z"/><path d="M32,30c0.4,0,0.7,0,1,0.1c1.7,0.1,3.3,0.4,4.8,0.9L32,19.2L26.1,31c1.5-0.5,3.1-0.8,4.8-0.9C31.3,30,31.6,30,32,30z"/><path d="M22,40c0-2.3,0.8-4.4,2.1-6.1c-4.2,1.9-7.4,4.8-8.7,6.1c1.3,1.3,4.5,4.2,8.7,6.1C22.8,44.4,22,42.3,22,40z"/><path d="M32,48c4.4,0,8-3.6,8-8s-3.6-8-8-8s-8,3.6-8,8S27.6,48,32,48z M27.3,39c0.8,0.2,1.6,0.2,2.3-0.2c0.7-0.4,1.2-1,1.5-1.8   c0.2-0.6,0.2-1.2,0-1.8L30.6,34H32c3.3,0,6,2.7,6,6s-2.7,6-6,6s-6-2.7-6-6v-1.4L27.3,39z"/><polygon points="11.2,60.8 12.4,62 51.6,62 52.8,60.8 52.4,60 11.6,60  "/><path d="M39.9,46.1c4.2-1.9,7.4-4.8,8.7-6.1c-1.3-1.3-4.5-4.2-8.7-6.1c1.3,1.7,2.1,3.8,2.1,6.1S41.2,44.4,39.9,46.1z"/><path d="M32,44c2.2,0,4-1.8,4-4c0-1.8-1.2-3.3-2.8-3.8c0,0.5-0.1,1-0.2,1.5c-0.7,2.1-2.6,3.5-4.8,3.5C28.7,42.8,30.2,44,32,44z"/><rect x="13" y="21" width="2" height="2"/><rect x="8" y="18" width="2" height="2"/><rect x="3" y="15" width="2" height="2"/><rect x="21" y="13" width="2" height="2"/><rect x="18" y="8" width="2" height="2"/><rect x="15" y="3" width="2" height="2"/><rect x="31" y="5" width="2" height="2"/><rect x="31" y="10" width="2" height="2"/><rect x="31" width="2" height="2"/><rect x="49" y="21" width="2" height="2"/><rect x="54" y="18" width="2" height="2"/><rect x="59" y="15" width="2" height="2"/><rect x="41" y="13" width="2" height="2"/><rect x="44" y="8" width="2" height="2"/><rect x="47" y="3" width="2" height="2"/><rect x="5" y="31" width="2" height="2"/><rect x="10" y="31" width="2" height="2"/><rect y="31" width="2" height="2"/><rect x="8" y="44" width="2" height="2"/><rect x="3" y="47" width="2" height="2"/><rect x="57" y="31" width="2" height="2"/><rect x="52" y="31" width="2" height="2"/><rect x="62" y="31" width="2" height="2"/><rect x="54" y="44" width="2" height="2"/><rect x="59" y="47" width="2" height="2"/></g><text x="0" y="79" fill="#000000" font-size="5px" font-weight="bold" font-family="'Helvetica Neue', Helvetica, Arial-Unicode, Arial, Sans-serif">Created by Vicons Design</text><text x="0" y="84" fill="#000000" font-size="5px" font-weight="bold" font-family="'Helvetica Neue', Helvetica, Arial-Unicode, Arial, Sans-serif">from the Noun Project</text></svg>