<svg xmlns="http://www.w3.org/2000/svg" xmlns:xlink="http://www.w3.org/1999/xlink" version="1.1" x="0px" y="0px" viewBox="0 0 262.667 342.70874999999995" style="enable-background:new 0 0 262.667 274.167;" xml:space="preserve"><g><path d="M187.762,177.36l3.11-4.908c1.977-3.116,1.531-7.071-0.834-9.682l2.452-3.866c0.634-1,0.336-2.322-0.662-2.954   c-0.999-0.634-2.32-0.339-2.954,0.66l-2.45,3.869c-3.368-1.025-7.136,0.259-9.113,3.378l-3.604,5.688   c0.359,0.101,0.712,0.198,1.076,0.304C180.262,171.463,184.557,174.144,187.762,177.36z"/><path d="M165.318,161.29c0.059-3.689-2.387-6.831-5.766-7.822l0.072-4.578c0.019-1.183-0.925-2.155-2.106-2.174   c-1.183-0.019-2.155,0.924-2.174,2.106l-0.071,4.578c-3.407,0.886-5.951,3.946-6.009,7.638l-0.059,3.73   c5.086,0.41,10.253,1.243,16.018,2.577L165.318,161.29z"/><path d="M55.625,172.996c-0.075-3.689-2.634-6.739-6.045-7.607l-0.094-4.577c-0.024-1.182-1.003-2.119-2.185-2.096   c-1.182,0.024-2.12,1.001-2.096,2.185l0.095,4.578c-3.372,1.008-5.803,4.159-5.727,7.85l0.122,5.892h16.06L55.625,172.996z"/><path d="M76.415,172.996c-0.075-3.689-2.634-6.739-6.045-7.607l-0.094-4.577c-0.024-1.182-1.003-2.119-2.185-2.096   c-1.182,0.024-2.12,1.001-2.096,2.185l0.095,4.578c-3.372,1.008-5.803,4.159-5.727,7.85l0.122,5.892h16.059L76.415,172.996z"/><path d="M111.307,261.804c0,6.828,5.537,12.363,12.363,12.363c6.828,0,12.365-5.535,12.365-12.363v-21.753h-24.729V261.804z"/><path d="M118.04,166.627l0.074-0.017l0.074-0.013c6.732-1.09,12.531-1.744,17.847-2.008v-16.726v-29.869   c0.42,0.288,0.826,0.585,1.267,0.859c3.168,1.946,7.017,3.626,11.658,3.653c0.026,0,0.054,0,0.081,0   c2.823,0,5.857-0.751,8.537-2.292c4.1-2.346,7.212-6.135,9.669-10.96c2.463-4.862,4.383-10.928,5.921-18.734   c0.819-4.178-1.779-8.225-5.849-9.275V59.983h-3v21.066c-3.331,0.42-6.17,2.919-6.851,6.394   c-1.758,9.103-4.124,14.525-5.913,16.954c-0.888,1.234-1.547,1.718-1.885,1.911c-0.354,0.184-0.419,0.187-0.711,0.201   c-0.424,0.027-1.647-0.256-3.234-1.255c-2.381-1.443-5.202-4.233-7.189-6.631c-1.007-1.195-1.83-2.285-2.383-3.053   c-0.277-0.384-0.486-0.687-0.62-0.881c-0.064-0.097-0.112-0.167-0.139-0.207c-0.017-0.027-0.017-0.027-0.018-0.027   c-1.107-1.709-2.756-2.847-4.574-3.352c-0.783-0.268-1.62-0.419-2.495-0.419h-1.061c-4.445,4.502-10.614,7.299-17.426,7.299   c-6.812,0-12.981-2.796-17.426-7.299h-2.722c-1.142,0-2.223,0.254-3.198,0.698c-0.254,0.103-0.505,0.219-0.753,0.35   c-0.213,0.119-5.807,3.062-11.736,7.509c-2.972,2.245-6.041,4.839-8.668,7.967c-1.311,1.573-2.522,3.293-3.494,5.308   c-0.519,1.085-0.967,2.28-1.275,3.572c-0.262,1.097-0.423,2.264-0.425,3.505c-0.005,1.57,0.29,3.233,0.872,4.814   c0.083,0.26,0.179,0.518,0.291,0.772h-0.002c1.201,2.761,3.236,4.99,5.568,6.668c3.535,2.525,7.802,4.141,13.284,5.443   c5.488,1.278,12.234,2.171,20.708,2.679c0.162,0.01,0.324,0.014,0.484,0.014c4.201,0.001,7.724-3.274,7.977-7.523   c0.263-4.411-3.097-8.199-7.507-8.462c-10.452-0.612-17.558-1.911-21.665-3.307c-1.812-0.602-3.013-1.218-3.667-1.646   c0.253-0.426,0.637-0.996,1.164-1.629c0.246-0.295,0.521-0.603,0.827-0.915c0.968-1.032,2.182-2.115,3.487-3.173v5.836   c3.118,0.912,9.215,2.207,19.971,2.836c2.667,0.159,5.113,1.349,6.885,3.346c1.772,1.996,2.659,4.564,2.501,7.232   c-0.174,2.906-1.585,5.46-3.697,7.172l0.423,2.254c3.508,0.297,6.532,2.886,7.213,6.512l1.383,7.362   c0.818,4.359-14.962,7.322-15.78,2.965l-1.384-7.364c-0.682-3.627,1.199-7.136,4.36-8.685l-0.204-1.088   c-0.735,0.174-1.497,0.275-2.283,0.275h-0.004c-0.202,0-0.408-0.006-0.611-0.019c-7.359-0.439-13.531-1.175-18.773-2.236v8.137   v18.939v12.416h19.643C104.153,172.878,109.681,168.643,118.04,166.627z"/><path d="M81.943,261.804c0,6.828,5.537,12.363,12.363,12.363c6.828,0,12.365-5.535,12.365-12.363v-21.753H81.943V261.804z"/><path d="M235.419,183.709c1.146-0.438,2.345-0.661,3.564-0.661c2.179,0,4.252,0.729,5.943,1.98   c0.753-11.224-6.994-21.484-18.323-23.595c-12.214-2.274-23.959,5.784-26.232,17.996c-0.57,3.059-0.491,6.089,0.139,8.947   c2.392,0.251,4.981,0.408,7.74,0.407C217.463,188.782,226.602,187.074,235.419,183.709z"/><path d="M100.819,206.217c0,0,7.111,0,16.834,0c17.691,0,44.041,0,52,0c5.164,0,9.694-0.126,13.358-0.896   c-5.053-1.438-8.357-2.89-9.462-3.408c-5.032-2.438-7.111-8.433-4.708-13.392c1.664-3.427,5.196-5.64,9.005-5.64   c1.518,0,2.983,0.339,4.359,1.004l0.225,0.102c0.224,0.097,0.643,0.274,1.209,0.49c1.092,0.425,2.884,1.066,5.237,1.719   c0.818,0.228,1.732,0.463,2.731,0.694c-2.275-6.252-7.811-12.301-17.38-15.12c-20.457-5.899-33.641-6.774-55.719-3.198   c-9.497,2.29-13.747,7.153-15.521,12.645H26.231c-6.904,0-12.5,5.596-12.5,12.498c0,6.904,5.596,12.501,12.5,12.501H100.819z"/><path d="M188.341,188.123c-2.377-0.659-4.219-1.311-5.421-1.777c-0.6-0.232-1.042-0.42-1.312-0.537   c-0.134-0.06-0.224-0.101-0.271-0.122h-0.004c-3.978-1.929-8.762-0.271-10.69,3.707c-1.926,3.974-0.268,8.76,3.708,10.688v-0.002   c0.698,0.323,13.915,6.682,33.899,6.703c0.006,0,0.013,0,0.019,0c9.852,0,21.343-1.586,33.571-6.262   c4.126-1.576,6.194-6.199,4.618-10.327c-1.577-4.127-6.202-6.195-10.328-4.618c-10.246,3.913-19.722,5.205-27.881,5.207   C199.993,190.785,193.099,189.443,188.341,188.123z"/><circle cx="109.819" cy="73.483" r="22.5"/><path d="M168.024,62.542c-1.045,0.796,0.52,1.462,1.281,0.882c5.272-4.015,10.117-10.638,6.167-17.159   c-3.344-5.521-8.41-11.516-14.714-13.555c-0.58-0.188-1.932,0.274-1.442,1.077c3.332,5.46,7.579,12.756,2.977,18.647   c-3.156,4.041-4.73,5.211-2.211,10.383c0.41,0.842,2.318,0.275,1.932-0.518c-1.707-3.506-1.652-5.41,1.036-8.314   c1.663-1.797,2.784-3.514,3.269-5.918c0.85-4.214-1.54-8.946-3.822-12.801c4.098,2.285,7.206,6.209,9.92,9.969   C177.17,51.825,174.012,57.983,168.024,62.542z"/><path d="M152.02,46.576c0.359,0.741,2.254,0.146,1.932-0.517c-3.046-6.276-4.748-10.406-2.109-17.284   c2.087-5.438,1.39-9.06-2.299-13.522c-0.479-0.581-2.332,0.131-1.783,0.795c4.733,5.728,3.18,9.681,1.023,16.036   C146.987,37.373,149.774,41.949,152.02,46.576z"/><path d="M166.57,25.857c0.611,0.531,2.322-0.365,1.498-1.079c-7.808-6.768,4.54-16.909-2.195-24.543   c-0.554-0.628-2.394,0.129-1.773,0.832C170.818,8.682,158.218,18.617,166.57,25.857z"/><path d="M182.943,16.502c0.141-0.557-1.776-0.258-1.916,0.297c-1.117,4.438,1.009,7.546,1.404,11.83   c0.266,2.881-2.297,5.928-3.412,8.423c-1.108,2.48-0.753,4.791,0.333,7.19c0.255,0.563,2.135-0.068,1.932-0.518   c-2.86-6.32,2.712-8.904,3.022-14.59C184.557,24.576,181.745,21.262,182.943,16.502z"/><path d="M256.667,210.051H6c-3.314,0-6,2.686-6,6v16c0,3.313,2.686,6,6,6h8.599v34.933h10.969v-34.933h211.531v34.933h10.969   v-34.933h8.6c3.314,0,6-2.688,6-6v-16C262.667,212.736,259.981,210.051,256.667,210.051z"/></g><text x="0" y="289.167" fill="#000000" font-size="5px" font-weight="bold" font-family="'Helvetica Neue', Helvetica, Arial-Unicode, Arial, Sans-serif">Created by Gan Khoon Lay</text><text x="0" y="294.167" fill="#000000" font-size="5px" font-weight="bold" font-family="'Helvetica Neue', Helvetica, Arial-Unicode, Arial, Sans-serif">from the Noun Project</text></svg>