<svg xmlns="http://www.w3.org/2000/svg" xmlns:xlink="http://www.w3.org/1999/xlink" version="1.1" x="0px" y="0px" viewBox="0 0 64 80" style="enable-background:new 0 0 64 64;" xml:space="preserve"><g><g><path d="M49.5,6.2c0.2,0.1,0.4,0.3,0.6,0.4C52,7.9,54,9.1,56,10.3c0.5,0.3,1,0.5,1.4,0.6c0,0,0,0,0,0c0,0,0,0,0,0    c0.5,0,0.9-0.1,1.2-0.7c0.7-1.1-0.2-1.9-1.1-2.5c-0.2-0.1-0.4-0.3-0.6-0.4c-1.9-1.3-3.9-2.5-5.9-3.8c-0.5-0.3-1-0.5-1.4-0.6    c0,0,0,0,0,0c0,0,0,0,0,0c-0.5,0-0.9,0.1-1.2,0.7C47.7,4.8,48.6,5.6,49.5,6.2z"/><path d="M31.4,30.5C31.4,30.5,31.4,30.5,31.4,30.5l1.2,0c1.7,0,3.4,0,5.1,0c2.4-0.1,4.8-0.3,7.2-0.6c0.1-0.2,0.3-0.4,0.4-0.5    c0.6-0.9,1.1-1.8,1.6-2.8c0.5-0.9,1-1.8,1.5-2.7c0.6-1.1,1.3-2.2,1.9-3.3c1.8-3.2,3.6-6.5,5.5-9.8c-2.3-1.5-4.5-2.8-6.9-4.4    c-3.1,4.3-6.2,8.5-9.2,12.7c-1.8,2.5-3.6,5-5.4,7.5C33.2,28,32.3,29.2,31.4,30.5z"/><path d="M61.6,26.7v0.5c0,0-2.2,14.4-2.2,14.4c0,0,0,0,0,0.1c-1.5,9.6-11.2,12.2-19.8,12.7c0.1-0.1,0.2-0.2,0.3-0.4    c0.3-0.3,0.6-0.7,0.9-1.1c0,0,0.1-0.1,0.1-0.1c0.3-0.3,0.8-0.9,0.9-1.7c0-0.1,0-0.2,0-0.3L41,48.9c-0.3-0.3-0.7-0.5-1.1-0.7    c-0.1,0-0.1,0-0.1-0.1c-2-1-4.3-2-6.7-2.7c-0.4-0.1-0.8-0.3-1.3-0.4l-0.1,0c-2.6-0.7-5.3-1.4-8.1-1.5c-2.2-0.1-4.5,0.4-6.3,1.4    c-0.5,0.2-0.9,0.5-1.3,0.8c0.1-0.4,0.2-0.8,0.2-1.2c0.4-2.2,0-4.3-1-6.2c-0.9-1.5-2-3-3.4-4.5c-0.2-0.2-0.4-0.4-0.6-0.6    c-0.1-0.1-0.3-0.3-0.4-0.4l-0.2-0.2c-0.3-0.3-0.6-0.4-1-0.5c-0.5-3-0.8-5.5-0.8-5.5h0.1c0.2-1,0.7-1.8,1.6-2.3    c1.4-0.8,2.8-1.6,4.3-2.1c3.6-1.3,7.3-1.9,11-2.3c3.1-0.3,6.3-0.4,9.4-0.6c0.8,0,1.7,0,2.5,0.1c-0.4,0.6-0.9,1.2-1.3,1.8    c-0.4,0-0.8,0-1.2,0c-3.5,0.3-7,0.5-10.5,0.8c-3.1,0.3-6.1,0.9-9,2.1c-0.9,0.4-1.8,1-2.6,1.6c-0.3,0.3-0.6,0.6-0.6,1    c-0.1,0.5,0.1,1.1,0.6,1.6c0.7,0.6,1.5,1.1,2.3,1.5c2.7,1.2,5.7,1.8,8.6,2.2c8.3,1.1,16.5,1,24.7-0.4c2.4-0.4,4.9-1,7.1-2.2    c0.9-0.5,2-1.1,1.9-2.4c0-0.1,0-0.2,0-0.2c-0.1-1.1-1.1-1.6-1.9-2c-1.4-0.6-2.8-1.2-4.2-1.6c-0.3-0.1-0.7-0.2-1-0.3    c0.3-0.6,0.7-1.2,1-1.7c0.6,0.1,1.2,0.3,1.8,0.4c2,0.5,3.8,1.4,5.7,2.2c0.7,0.3,1.3,0.8,1.8,1.4C61.2,25.6,61.5,26.2,61.6,26.7    L61.6,26.7z"/></g><path d="M34.7,56.5c1.9-1.5,3.6-3.4,5.2-5.3c0.3-0.4,0.2-0.8-0.2-1c-0.3-0.2-0.5-0.3-0.8-0.4c-2.1-1-4.2-2-6.4-2.6   c-0.4-0.1-0.7-0.2-1.1-0.3c-2.6-0.7-5.3-1.4-8-1.5c-1.8-0.1-3.8,0.3-5.3,1.2c-1.1,0.6-2,1.5-2.6,2.5c-0.5,0.9-1.3,2.3-1.2,3.3   c-0.1,0.1-0.2,0.3-0.3,0.3c-1,0.4-2,0.9-3.2,1.7l0,0l0,0c-0.2,0.2-0.4,0.3-0.6,0.5c0,0.1-0.1,0.1-0.2,0.2c0-0.2,0.1-0.4,0.1-0.6   c0-0.2,0.1-0.6,0.1-0.8c0-0.3,0-0.8,0.2-1.1c0.1-0.4,0.6-0.7,0.7-1c1.7-2.2,2.8-4.7,3.2-7.5c0.3-1.8,0-3.4-0.8-5   c-0.9-1.6-2-2.9-3.2-4.1c-0.3-0.4-0.7-0.7-1-1c-0.3-0.3-0.6-0.3-0.8,0.1c-1.1,1.6-2.2,3.1-3.3,4.6c-1.1,1.6-2,3.2-2.5,5.2   c-0.4,1.4-0.4,2.9,0.3,4.3c0.7,1.4,1.7,2.5,2.9,3.4c0.9,0.7,1.9,1.3,3,1.6c-0.1,0.6-0.1,1.2-0.4,1.7c-0.2,0.4-0.3,0.9-0.5,1.3   c-0.6,1.4-1.3,1.7-2.1,3c-0.3,0.5-0.3,0.9-0.1,1.2C6,60.8,6.5,60.9,7,60.9c0.7-0.1,1.1-0.6,1.5-1.1c0.4-0.5,0.2-0.4,0.6-0.9   c1-1.4,2.2-2.5,3.6-3.5c0.7-0.5,1.5-0.8,2.3-1.1c0.8-0.3,1.6-0.5,2.4-0.8c0.9-0.4,2-0.6,3-0.8c2-0.5,4-0.9,6.1-1.1   c2-0.3,4.1-0.5,6.1-0.5c-2.9,0.7-6.2,1.3-9.5,2.2c-3,0.7-8.5,3-9.5,3.3c-0.1,0-0.1,0.1,0,0.2c0.1,0.1,0.2,0.2,0.4,0.3   c0.7,0.5,1.4,0.9,2.1,1.3c0.9,0.5,1.9,1.1,2.8,1.5l0,0c3,1.4,6,1.7,9.1,0.6C30.5,59.3,32.7,58.1,34.7,56.5z"/></g><text x="0" y="79" fill="#000000" font-size="5px" font-weight="bold" font-family="'Helvetica Neue', Helvetica, Arial-Unicode, Arial, Sans-serif">Created by Delwar Hossain</text><text x="0" y="84" fill="#000000" font-size="5px" font-weight="bold" font-family="'Helvetica Neue', Helvetica, Arial-Unicode, Arial, Sans-serif">from the Noun Project</text></svg>