<svg xmlns="http://www.w3.org/2000/svg" xmlns:xlink="http://www.w3.org/1999/xlink" version="1.1" x="0px" y="0px" viewBox="0 0 100 125" enable-background="new 0 0 100 100" xml:space="preserve"><g><g><g><polygon points="89.299,93.615 63.604,49.11 33.587,53.977 10.702,93.615    "/><path d="M91.65,94.974H8.35L32.734,52.74l31.578-5.122L91.65,94.974z M13.054,92.258h73.893L62.896,50.6l-28.454,4.614     L13.054,92.258z"/></g><path d="M34.817,49.132L50,22.833l12.584,21.796L34.817,49.132z M50,28.265l-9.972,17.271l18.235-2.958L50,28.265z"/></g><path fill="#000000" d="M45.588,14.45c-1.383-0.956-2.141-2.18-2.141-3.456c0-1.277,0.758-2.506,2.141-3.457   c0.629-0.432,0.788-1.295,0.355-1.924c-0.418-0.61-1.32-0.773-1.925-0.355c-2.15,1.483-3.331,3.519-3.331,5.731   c0,2.212,1.186,4.248,3.331,5.731c1.383,0.956,2.141,2.179,2.141,3.457c0,1.277-0.758,2.505-2.141,3.456   c-0.629,0.432-0.788,1.296-0.351,1.925c0.259,0.375,0.682,0.595,1.137,0.595c0.285,0,0.553-0.086,0.788-0.245   c2.151-1.483,3.332-3.519,3.332-5.731S47.738,15.933,45.588,14.45z"/><path fill="#000000" d="M61.206,17.238c-1.382-0.956-2.141-2.179-2.141-3.456s0.759-2.506,2.141-3.457   c0.63-0.432,0.789-1.296,0.355-1.924c-0.418-0.61-1.319-0.773-1.925-0.355c-2.149,1.483-3.331,3.519-3.331,5.731   c0,2.212,1.186,4.248,3.331,5.731c1.383,0.956,2.141,2.18,2.141,3.457s-0.758,2.506-2.141,3.456   c-0.629,0.432-0.787,1.296-0.351,1.925c0.259,0.374,0.682,0.595,1.138,0.595c0.283,0,0.552-0.086,0.788-0.245   c2.15-1.483,3.331-3.519,3.331-5.731S63.357,18.721,61.206,17.238z"/><path fill="#000000" d="M34.087,23.21c-1.382-0.956-2.141-2.179-2.141-3.457c0-1.277,0.759-2.506,2.141-3.457   c0.629-0.432,0.788-1.295,0.355-1.924c-0.418-0.61-1.32-0.773-1.924-0.355c-2.15,1.483-3.331,3.519-3.331,5.731   c0,2.213,1.186,4.249,3.331,5.731c1.382,0.956,2.14,2.18,2.14,3.457c0,1.276-0.758,2.506-2.14,3.456   c-0.629,0.432-0.788,1.296-0.352,1.925c0.26,0.374,0.682,0.595,1.138,0.595c0.285,0,0.552-0.086,0.788-0.245   c2.15-1.483,3.331-3.519,3.331-5.731C37.423,26.724,36.237,24.693,34.087,23.21z"/></g><text x="0" y="115" fill="#000000" font-size="5px" font-weight="bold" font-family="'Helvetica Neue', Helvetica, Arial-Unicode, Arial, Sans-serif">Created by Lee Seungho</text><text x="0" y="120" fill="#000000" font-size="5px" font-weight="bold" font-family="'Helvetica Neue', Helvetica, Arial-Unicode, Arial, Sans-serif">from the Noun Project</text></svg>