<svg xmlns="http://www.w3.org/2000/svg" xmlns:xlink="http://www.w3.org/1999/xlink" version="1.1" x="0px" y="0px" viewBox="0 0 132.855 303.66875" style="enable-background:new 0 0 132.855 242.935;" xml:space="preserve"><g><path d="M83.397,37.268c2.339-2.683,4.077-5.959,4.941-9.667c2.817-12.1-4.709-24.192-16.807-27.011   c-12.1-2.816-24.193,4.708-27.012,16.808c-1.701,7.307,0.373,14.607,4.944,19.868c4.406-4.237,10.384-6.85,16.965-6.85   C73.01,30.417,78.99,33.03,83.397,37.268z"/><path d="M21.741,169.508c-3.895,1.367-6.691,5.065-6.691,9.428v39h3.5v6h10v-4.998c-5-16.31-7.396-29.412-7.439-40.463   C21.112,175.293,21.329,172.317,21.741,169.508z"/><path d="M105.55,218.932v5.004h10v-6h3.5v-39c0-4.362-2.797-8.061-6.691-9.428c0.41,2.804,0.622,5.777,0.624,8.956   C112.94,189.525,110.545,202.628,105.55,218.932z"/><path d="M81.513,169.809c-0.239-0.401-0.411-0.66-0.617-0.874H53.21c-0.257,0.255-0.495,0.57-0.832,1.282   c-0.471,1.017-1.269,3.46-1.265,8.246c-0.033,5.376,1.114,17.336,8.614,39.472h14.642c7.499-22.133,8.645-34.093,8.613-39.457   C82.984,173.063,81.955,170.611,81.513,169.809z"/><path d="M29.646,63.493c0,0.565-0.004,1.153-0.01,1.757c1.562-0.206,3.246-0.399,5.065-0.576c-0.741,2.507-1.667,5.525-2.709,8.708   c6.066,2.889,11.833,5.102,13.169,5.604c0.812,0.309,1.254,0.469,1.325,0.494c0.104,0.037,0.199,0.085,0.301,0.126   c0.092-0.275,0.183-0.55,0.273-0.822c0.017,0,0.034-0.003,0.051-0.003h13.789c-10.855-2.515-18.971-12.256-18.971-23.864   c0-2.395,0.352-4.708,0.995-6.897c-5.548,0.311-10.395,0.732-14.636,1.271c0.958,1.588,1.462,3.41,1.432,5.311   C29.672,57.613,29.646,60.604,29.646,63.493z"/><path d="M11.645,63.493c0,0.204,0.001,0.398,0.001,0.601c5.875,2.091,13.083,5.56,15.418,6.806   c0.215,0.116,0.435,0.229,0.652,0.344c-0.046-2.405-0.071-4.982-0.071-7.75c0-2.788,0.023-5.761,0.074-8.926   c0.074-4.419-3.449-8.06-7.867-8.131c-4.416-0.073-8.057,3.449-8.128,7.866C11.67,57.553,11.645,60.613,11.645,63.493z"/><path d="M90.929,54.916c0,11.608-8.118,21.35-18.973,23.864h13.789c0.017,0,0.033,0.002,0.05,0.003   c0.09,0.272,0.181,0.547,0.273,0.822c0.102-0.04,0.199-0.089,0.303-0.126c0.07-0.025,0.513-0.186,1.325-0.494   c1.336-0.502,7.101-2.713,13.165-5.602c-0.155-0.475-0.307-0.945-0.455-1.41c-0.858-2.664-1.619-5.165-2.25-7.299   c1.824,0.178,3.502,0.373,5.066,0.58c-0.007-0.605-0.011-1.195-0.011-1.762c0-2.889-0.025-5.88-0.074-8.894   c-0.03-1.899,0.474-3.722,1.431-5.309c-4.24-0.538-9.085-0.968-14.634-1.279C90.577,50.203,90.929,52.518,90.929,54.916z"/><path d="M119.691,93.066c0.326-2.227,0.599-4.741,0.822-7.574c-0.01,0.007-0.021,0.011-0.032,0.018   c-9.332,5.769-20.902,10.403-26.969,12.65l-0.039,0.015v-2.134c3.637-1.359,16.117-6.15,25.954-12.232   c3.882-2.463,7.423-4.982,10.25-8.615c1.264-1.683,2.494-3.805,2.967-6.496c0.065-0.371,0.115-0.753,0.149-1.146   c0.024-0.204,0.037-0.412,0.045-0.621c0.003-0.076,0.014-0.146,0.016-0.224c0-0.017-0.002-0.032-0.002-0.049   c0-0.02,0.003-0.039,0.003-0.059c0-0.063-0.001-0.103-0.002-0.122c0.003-2.007-0.574-4.131-1.575-5.868   c-1.808-3.12-4.423-4.977-7.218-6.401c-0.311-0.154-0.64-0.296-0.962-0.441c0.011,0.167,0.031,0.333,0.034,0.502   c0.052,3.025,0.078,6.104,0.078,9.154c0.075-0.024,0.15-0.047,0.224-0.07c-6.322,4.058-13.979,7.859-16.702,9.312   c-6.996,3.761-15.166,7.002-18.333,8.195c-0.217,0.082-0.405,0.153-0.571,0.215c-0.664-0.186-1.36-0.292-2.084-0.292H47.11   c-0.723,0-1.419,0.106-2.083,0.292c-0.166-0.063-0.353-0.133-0.57-0.215c-3.167-1.193-11.337-4.435-18.333-8.195   c-2.722-1.452-10.38-5.254-16.702-9.312c0.074,0.023,0.149,0.046,0.224,0.07c0-3.05,0.026-6.129,0.078-9.154   c0.003-0.175,0.023-0.346,0.035-0.519c-1.585,0.721-3.042,1.557-4.407,2.592c-1.428,1.106-2.77,2.494-3.778,4.267   C0.563,62.364-0.015,64.518,0,66.544c0,0.068,0.001,0.114,0.002,0.155c0,0.002-0.001,0.005-0.001,0.007   c0,0.002,0.001,0.005,0.001,0.007c0.002,0.052,0.002,0.086,0.002,0.097c0.007,0.278,0.03,0.554,0.064,0.824   c0.034,0.364,0.083,0.719,0.143,1.063c0.473,2.691,1.703,4.813,2.967,6.496c2.827,3.633,6.368,6.152,10.25,8.615   c9.836,6.081,22.313,10.872,25.953,12.231v2.134l-0.037-0.014c-6.066-2.247-17.637-6.882-26.969-12.65   c-0.01-0.007-0.021-0.011-0.032-0.018c0.223,2.833,0.496,5.348,0.822,7.574c0.513,3.42,1.119,6.178,2.046,8.67   c0.164,0.402,0.336,0.809,0.516,1.216c0.79,1.791,1.839,3.604,3.949,5.237c0.289,0.238,0.593,0.465,0.922,0.665   c0.008,0.006,0.014,0.012,0.023,0.017c0.002,0.001,0.005,0.002,0.007,0.004c0.005,0.003,0.009,0.006,0.014,0.009   c1.395,0.856,3.244,1.435,5.051,1.435c0.026,0,0.053,0,0.079,0c2.426-0.005,4.365-0.863,5.723-1.733   c2.545-1.696,3.856-3.52,5.184-5.452c0.239-0.365,0.472-0.741,0.703-1.12c0.701-1.153,1.364-2.373,2.001-3.645v46.106   c-4.468,2.726-8.632,6.773-11.392,11.947c-3.418,6.31-4.877,13.695-4.879,22.045c0.055,14.125,3.977,31.668,12.715,55.896   c2.445,6.75,9.9,10.236,16.65,7.791c6.752-2.445,10.24-9.9,7.793-16.65c-8.242-22.625-11.211-38.026-11.156-47.037   c-0.004-4.761,0.762-7.6,1.457-9.102c0.539-1.145,0.978-1.638,1.523-2.123c0.793-0.686,2.217-1.447,4.838-1.998   c1.374-0.293,3.031-0.492,4.877-0.615h10.502c1.453,0.098,2.789,0.242,3.958,0.447c1.867,0.316,3.291,0.77,4.258,1.234   c1.457,0.764,1.932,1.174,2.736,2.533c0.756,1.369,1.721,4.255,1.719,9.623c0.055,9.011-2.914,24.415-11.156,47.037   c-2.445,6.75,1.043,14.205,7.793,16.65c1.463,0.529,2.959,0.781,4.43,0.781c5.318,0,10.307-3.285,12.223-8.572v-0.002   c8.738-24.225,12.656-41.766,12.711-55.895c-0.004-7.436-1.148-14.064-3.811-19.91c-1.98-4.365-4.873-8.187-8.273-11.078   c-1.737-1.481-3.563-2.694-5.425-3.717V98.356c0.183,0.365,0.364,0.734,0.55,1.089c0.471,0.887,0.951,1.729,1.45,2.553   c0.798,1.317,1.655,2.57,2.685,3.765c0.853,0.968,1.822,1.93,3.204,2.822c1.356,0.87,3.297,1.729,5.721,1.735   c0.022,0,0.046,0,0.069,0c1.815,0,3.664-0.58,5.044-1.426c0.006-0.004,0.011-0.008,0.017-0.011   c0.008-0.005,0.016-0.008,0.024-0.013c0.024-0.016,0.044-0.033,0.068-0.049c0.308-0.19,0.594-0.401,0.867-0.626   c2.116-1.635,3.167-3.45,3.959-5.244c0.18-0.407,0.352-0.813,0.516-1.216C118.571,99.244,119.178,96.486,119.691,93.066z"/><path d="M121.209,64.094c0-0.202,0.002-0.396,0.002-0.601c0-2.88-0.024-5.94-0.08-9.19c-0.072-4.417-3.712-7.939-8.128-7.866   c-4.418,0.071-7.941,3.712-7.867,8.131c0.051,3.165,0.074,6.138,0.074,8.926c0,2.768-0.024,5.345-0.071,7.75   c0.217-0.115,0.437-0.228,0.652-0.344C108.127,69.653,115.335,66.184,121.209,64.094z"/><circle cx="66.428" cy="54.916" r="22.5"/></g><text x="0" y="257.935" fill="#000000" font-size="5px" font-weight="bold" font-family="'Helvetica Neue', Helvetica, Arial-Unicode, Arial, Sans-serif">Created by Gan Khoon Lay</text><text x="0" y="262.935" fill="#000000" font-size="5px" font-weight="bold" font-family="'Helvetica Neue', Helvetica, Arial-Unicode, Arial, Sans-serif">from the Noun Project</text></svg>