<svg xmlns="http://www.w3.org/2000/svg" xmlns:xlink="http://www.w3.org/1999/xlink" version="1.1" x="0px" y="0px" viewBox="0 0 261.5 332.48375000000004" style="enable-background:new 0 0 261.5 265.987;" xml:space="preserve"><g><path d="M244.75,265.987h11v-34h5.75v-39c0-3.314-2.685-6-6-6H6c-3.313,0-6,2.686-6,6v39h5.75v34h11v-34h228V265.987z"/><g><ellipse transform="matrix(0.6385 -0.7696 0.7696 0.6385 14.9373 196.5575)" cx="216.718" cy="82.377" rx="22.495" ry="22.496"/><path d="M35.903,168.48c-0.653,6.874,4.389,12.975,11.263,13.629c8.15,0.775,16.038,1.11,23.59,1.112    c40.86-0.029,71.698-9.748,81.149-13.093c1.682-0.418,3.467-1.042,5.369-1.91c19.584-10.8,29.424-19.619,41.891-36.877    c8.994-12.605,5.578-25.371-1.113-31.084c-2.5-2.133-5.723-2.929-9.115-2.667c3.754,4.041,6.037,7.249,6.902,8.539    c3.063,4.703,1.75,10.91-2.869,13.918c-1.631,1.059-3.516,1.619-5.449,1.619c-3.398,0-6.535-1.698-8.387-4.546l-0.07-0.1    l-0.082-0.117c-0.111-0.157-0.266-0.376-0.469-0.649c-0.48-0.65-1.291-1.703-2.416-3.019c-1.141-1.333-2.723-3.059-4.693-4.955    c-9.643,10.304-22.51,24.673-37.002,32.339c-7.139,4.484-9.395,7.683-8.918,11.165c-3.865,0.922-8.207,1.85-12.977,2.703    c1.424-2.953,1.33-6.418-0.316-9.292l-4.813-8.405c9.648-2.563,18.281-5.684,22.998-9.337    c-19.27-8.268-28.774-25.382-36.185-41.542C73.812,81.913,60.92,74.272,59.08,73.13c-4.26-2.722-5.486-8.297-2.815-12.477    c1.663-2.601,4.499-4.155,7.59-4.155c1.714,0,3.388,0.489,4.837,1.416c0.193,0.116,0.383,0.233,0.649,0.386    c0.75,0.429,1.594,0.881,2.492,1.337c2.099,1.067,5.553,2.683,10.089,4.314c0.756,0.272,1.569,0.55,2.409,0.828    c-5.753-10.56-12.487-17.511-24.221-15.709c-28.315,4.348-8.512,71.625-2.156,91.094H50.18c-5.523,0-10.001,4.477-10.001,10    c0,3.164,1.473,5.98,3.767,7.813C39.623,159.61,36.369,163.572,35.903,168.48z"/><path d="M134.667,78.688c0.211,3.982-2.215,7.501-5.746,8.867c16.809,0.642,29.584,7.535,38.457,14.547    c2.021,1.603,3.814,3.201,5.395,4.72c1.963,1.886,3.592,3.647,4.846,5.113c1.133,1.323,1.969,2.407,2.504,3.129    c0.268,0.361,0.457,0.634,0.572,0.799c0.059,0.084,0.096,0.14,0.115,0.167v-0.001c1.533,2.356,4.096,3.637,6.711,3.637    c1.496,0,3.01-0.419,4.357-1.295c3.701-2.411,4.752-7.366,2.342-11.07c-0.217-0.318-2.77-4.205-7.688-9.34    c-2.473-2.582-5.533-5.475-9.217-8.399c-10.498-8.341-26.252-16.907-46.734-17.946C132.917,73.135,134.508,75.71,134.667,78.688z"/><ellipse transform="matrix(0.2715 -0.9624 0.9624 0.2715 25.4643 78.6411)" cx="64.679" cy="22.5" rx="22.493" ry="22.495"/><path d="M70.925,61.42c-1.162-0.59-2.032-1.073-2.591-1.392c-0.278-0.162-0.479-0.282-0.599-0.354    c-0.062-0.037-0.102-0.062-0.12-0.075l0,0.001c-3.258-2.08-7.583-1.129-9.666,2.128c-2.082,3.258-1.129,7.585,2.127,9.668    c0.492,0.299,12.736,8.078,33.104,12.29c7.578,1.567,16.273,2.645,25.919,2.654c0.422,0,0.854-0.013,1.279-0.017    c1.004-0.01,2.016-0.03,3.039-0.064c0.873-0.029,1.746-0.058,2.633-0.105c3.859-0.205,6.824-3.5,6.619-7.361    c-0.205-3.859-3.502-6.823-7.361-6.618c-0.307,0.016-0.605,0.022-0.91,0.036c-1.234,0.056-2.449,0.09-3.648,0.107    c-0.551,0.008-1.107,0.022-1.65,0.022c-13.418,0-24.798-2.346-33.442-5.033c-1.559-0.485-3.04-0.979-4.416-1.475    C76.741,64.214,73.249,62.603,70.925,61.42z"/></g></g><text x="0" y="280.987" fill="#000000" font-size="5px" font-weight="bold" font-family="'Helvetica Neue', Helvetica, Arial-Unicode, Arial, Sans-serif">Created by Gan Khoon Lay</text><text x="0" y="285.987" fill="#000000" font-size="5px" font-weight="bold" font-family="'Helvetica Neue', Helvetica, Arial-Unicode, Arial, Sans-serif">from the Noun Project</text></svg>